<svg t="1604646170939" class="icon" viewBox="0 0 1024 1024" version="1.1"
  xmlns="http://www.w3.org/2000/svg" p-id="3711" width="200" height="200">
  <path d="M952.891476 497.571383l-156.565848-156.565848 0-214.996632c0-11.256368-9.107425-20.363793-20.363793-20.363793l-121.773438 0c-11.256368 0-20.363793 9.107425-20.363793 20.363793l0 52.495608-107.447151-107.447151c-3.683902-3.683902-8.800433-5.935176-14.326287-5.935176-5.628184 0-10.642384 2.251274-14.326287 5.935176l-426.718685 426.514023c-3.683902 3.683902-5.935176 8.698103-5.935176 14.326287 0 11.256368 9.107425 20.363793 20.363793 20.363793 5.628184 0 10.642384-2.251274 14.326287-5.935176l87.185688-87.185688 0 499.373425c0 11.256368 9.107425 20.363793 20.363793 20.363793l203.12628 0 203.12628 0 203.12628 0c11.256368 0 20.363793-9.107425 20.363793-20.363793l0-499.373425 87.185688 87.185688c3.683902 3.683902 8.800433 5.935176 14.326287 5.935176 11.256368 0 20.363793-9.107425 20.363793-20.363793C958.826652 506.371816 956.575378 501.255285 952.891476 497.571383M674.449859 146.270365l81.250512 0 0 154.109913-81.250512-81.250512L674.449859 146.270365zM598.315878 918.252561l-172.734086 0 0-325.002049 172.734086 0L598.315878 918.252561zM227.572042 837.002049l0-438.486706 284.376793-284.376793 284.376793 284.376793 0 438.486706 0 40.625256 0 40.625256-157.384493 0 0-40.625256 0-40.625256 0-264.11533c0-11.256368-9.107425-20.363793-20.363793-20.363793l-213.257012 0c-11.256368 0-20.363793 9.107425-20.363793 20.363793l0 264.11533 0 40.625256 0 40.625256-157.384493 0 0-40.625256L227.572042 837.002049z" p-id="3712"></path>
</svg>
